<?xml version="1.0" encoding="iso-8859-1"?>
<!-- Generator: Adobe Illustrator 19.0.0, SVG Export Plug-In . SVG Version: 6.00 Build 0)  -->
<svg version="1.1" id="Layer_1" xmlns="http://www.w3.org/2000/svg" xmlns:xlink="http://www.w3.org/1999/xlink" x="0px" y="0px"
	 viewBox="0 0 512.001 512.001" style="enable-background:new 0 0 512.001 512.001;" xml:space="preserve">
<path style="fill:#005ECE;" d="M256,0c-21.371,0-41.991,3.194-61.413,9.127c-7.717,2.357-22.554,18.787-22.554,18.787
	s-15.842-2.926-23.332,1.532C86.928,66.214,45.586,133.691,45.586,210.415v100.967l10.449,13.034
	c-2.279,3.218-9.956,12.71-9.137,18.571c4.014,28.709,15.867,48.74,15.986,48.941c9.178,13.476,22.256,30.106,39.797,46.789
	c3.841,3.653,16.352,0.487,16.352,0.487s3.497,16.794,7.594,19.908c29.25,22.243,67.349,42.183,115.756,51.799
	c6.096,0.957,15.669,1.787,26.307,0.188c48.906-9.556,87.337-29.644,116.786-52.061c4.453-3.39,10.658-12.39,10.658-12.39
	s9.571-4.496,13.049-7.799c17.61-16.728,30.73-33.411,39.934-46.922c0.119-0.201,11.982-20.251,15.991-48.981
	c0.816-5.848-1.828-12.057-1.828-18.531l3.135-12.709V210.413c0-76.859-41.487-144.437-103.44-181.161
	c-5.876-3.484-18.162,0.851-18.162,0.851s-18.186-18.18-27.739-21.081C297.75,3.158,277.247,0,256,0z"/>
<g>
	<path style="fill:#00479B;" d="M152.348,391.928c-0.143-0.241-17.298-29.237-17.298-67.512V210.414
		c0-100.454,70.875-185.04,165.682-205.62C286.318,1.665,271.356,0,256,0c-21.395,0-42.036,3.202-61.477,9.146
		c-8.044,2.46-23.483,19.204-23.483,19.204s-15.136-3.19-22.309,1.077C86.942,66.191,45.586,133.677,45.586,210.414v100.655
		l10.449,13.346c-2.919,2.204-9.97,12.531-9.171,18.318c3.981,28.843,15.901,48.992,16.021,49.193
		c9.127,13.4,22.108,29.919,39.5,46.507c4.112,3.922,16.216,3.377,16.216,3.377s4.282,14.458,8.23,17.455
		c29.224,22.18,67.258,42.051,115.553,51.645c6.096,0.957,15.669,1.787,26.307,0.188c11.23-2.194,21.901-4.949,32.044-8.154
		C221.677,477.962,175.067,425.284,152.348,391.928z"/>
	<path style="fill:#00479B;" d="M411.095,137.875c-7.426-15.811-17.218-30.377-29.1-43.292c-2.931-3.185-2.724-8.143,0.461-11.073
		c3.185-2.931,8.143-2.725,11.073,0.461c12.964,14.089,23.647,29.984,31.753,47.241c1.84,3.917,0.181,8.639-3.762,10.425
		C415.869,144.196,412.429,140.715,411.095,137.875z"/>
	<path style="fill:#00479B;" d="M422.031,168.452c-0.607-3.155-1.676-6.25-2.642-9.318c-1.299-4.129,0.996-8.528,5.124-9.827
		c4.129-1.301,8.528,0.996,9.827,5.124c1.054,3.352,2.025,6.776,2.886,10.179c1.062,4.196-1.481,8.457-5.676,9.519
		C430.905,174.291,423.445,175.804,422.031,168.452z"/>
</g>
<path style="fill:#FFFFFF;" d="M435.829,207.088c-15.897-34.456-108.733-25.5-143.188-9.603
	c-18.195,8.395-30.97,23.741-36.64,41.428c-5.672-17.687-18.447-33.033-36.64-41.428c-34.456-15.897-127.291-24.853-143.188,9.603
	s51.163,99.274,85.619,115.172c8.634,3.983,17.667,6.023,26.608,6.302c-12.227,30.13-37.08,114.546,68.347,114.546
	c105.415,0,78.52-84.398,65.556-114.536c9.364-0.114,18.856-2.135,27.909-6.312C384.665,306.362,451.726,241.544,435.829,207.088z"
	/>
<path style="fill:#BDDBFF;" d="M135.05,305.06v-94.702c0-9.128,0.592-18.124,1.728-26.954c-27.918,0.635-53.021,7.188-60.606,23.628
	C63.832,233.775,101.471,278.806,135.05,305.06z"/>
<path style="fill:#2D2D30;" d="M198.656,224.607c17.69,8.033,25.517,28.885,17.485,46.574c-8.033,17.69-28.885,25.518-46.574,17.485
	c-17.69-8.033-62.877-45.85-54.844-63.539S180.966,216.574,198.656,224.607z"/>
<path style="fill:#1D1D1F;" d="M139.8,225.13c2.163-5.501,9.537-8.278,18.716-9.479c-19.717-1.867-39.369-0.265-43.794,9.479
	c-8.033,17.69,37.154,55.506,54.844,63.539c8.908,4.045,18.616,4.065,27.087,0.832C195.979,289.243,127.836,255.564,139.8,225.13z"
	/>
<path style="fill:#2D2D30;" d="M313.344,224.607c-17.69,8.033-25.517,28.885-17.485,46.574c8.033,17.69,28.885,25.518,46.574,17.485
	c17.69-8.033,62.877-45.85,54.844-63.539C389.245,207.438,331.034,216.574,313.344,224.607z"/>
<path style="fill:#1D1D1F;" d="M320.937,271.188c-8.033-17.69-0.205-38.542,17.485-46.575c7.945-3.608,24.064-7.437,40.14-8.959
	c-20.991-2.749-52.909,3.371-65.217,8.959c-17.69,8.033-25.518,28.885-17.485,46.575c7.731,17.025,27.335,24.908,44.566,18.317
	C332.074,286.318,324.924,279.97,320.937,271.188z"/>
<g>
	<path style="fill:#2D2D30;" d="M290.309,324.98c0,18.948-15.361,22.149-34.309,22.149s-34.309-3.201-34.309-22.149
		s15.361-62.103,34.309-62.103C274.948,262.876,290.309,306.032,290.309,324.98z"/>
	<path style="fill:#2D2D30;" d="M284.229,405.759h-56.458c-9.793,0-17.806-8.012-17.806-17.806l0,0
		c0-9.793,8.012-17.806,17.806-17.806h56.458c9.793,0,17.806,8.012,17.806,17.806l0,0
		C302.035,397.746,294.023,405.759,284.229,405.759z"/>
</g>
<g>
	<path style="fill:#1D1D1F;" d="M246.768,324.98c0-14.523,9.024-43.265,21.77-55.899c-3.884-3.849-8.114-6.205-12.539-6.205
		c-18.948,0-34.309,43.155-34.309,62.104s15.361,22.149,34.309,22.149c4.427,0,8.654-0.18,12.539-0.689
		C255.795,344.769,246.768,339.502,246.768,324.98z"/>
	<path style="fill:#1D1D1F;" d="M235.042,387.953L235.042,387.953c0-9.793,8.012-17.806,17.806-17.806h-25.078
		c-9.793,0-17.806,8.012-17.806,17.806l0,0c0,9.793,8.012,17.806,17.806,17.806h25.078
		C243.056,405.759,235.042,397.746,235.042,387.953z"/>
</g>
<path style="fill:#BDDBFF;" d="M45.586,311.501v12.915c0,6.436,0.493,12.599,1.3,18.417c0.704-0.023,65.094,3.376,65.094,62.926
	c0,12.065-3.417,23.345-9.324,32.934c7.25,6.896,15.267,13.801,24.082,20.497c10.46-15.19,16.59-33.593,16.59-53.431
	C143.326,311.501,46.719,311.461,45.586,311.501z"/>
<g>
	<path style="fill:#FFFFFF;" d="M466.414,311.501v12.915c0,6.436-0.493,12.599-1.3,18.417c-0.704-0.023-65.094,1.983-65.094,62.926
		c0,12.065,3.417,23.345,9.324,32.934c-7.25,6.896-15.267,13.801-24.082,20.497c-10.46-15.19-16.59-33.593-16.59-53.431
		C368.673,311.501,465.28,311.461,466.414,311.501z"/>
	<path style="fill:#FFFFFF;" d="M148.882,29.355v79.514c0,12.534,10.255,22.788,22.788,22.788l0,0
		c12.534,0,22.788-10.255,22.788-22.788V9.177C178.358,14.107,163.083,20.921,148.882,29.355z"/>
</g>
<path style="fill:#BDDBFF;" d="M148.882,29.355v79.514c0,5.423,1.922,10.417,5.115,14.34c10.062-22.007,23.81-42.001,40.462-59.178
	V9.177C178.358,14.107,163.083,20.921,148.882,29.355z"/>
<path style="fill:#FFFFFF;" d="M340.328,131.657L340.328,131.657c12.534,0,22.788-10.255,22.788-22.788V29.355
	c-14.201-8.434-29.476-15.248-45.577-20.178v99.692C317.54,121.403,327.795,131.657,340.328,131.657z"/>
<g>
</g>
<g>
</g>
<g>
</g>
<g>
</g>
<g>
</g>
<g>
</g>
<g>
</g>
<g>
</g>
<g>
</g>
<g>
</g>
<g>
</g>
<g>
</g>
<g>
</g>
<g>
</g>
<g>
</g>
</svg>
